<svg id="visual" viewBox="0 0 900 450" width="900" height="450" xmlns="http://www.w3.org/2000/svg" xmlns:xlink="http://www.w3.org/1999/xlink" version="1.1"><g><g transform="translate(483 3)"><path d="M0 -16.8L16.8 0L0 16.8L-16.8 0Z" fill="none" stroke="#FFFFFF" stroke-width="1"></path></g><g transform="translate(140 108)"><path d="M0 -12L12 0L0 12L-12 0Z" fill="none" stroke="#FFFFFF" stroke-width="1"></path></g><g transform="translate(686 63)"><path d="M0 -15L15 0L0 15L-15 0Z" fill="none" stroke="#FFFFFF" stroke-width="1"></path></g><g transform="translate(748 391)"><path d="M0 -4L4 0L0 4L-4 0Z" fill="none" stroke="#FFFFFF" stroke-width="1"></path></g><g transform="translate(553 170)"><path d="M0 -10L10 0L0 10L-10 0Z" fill="none" stroke="#FFFFFF" stroke-width="1"></path></g><g transform="translate(777 446)"><path d="M0 -6L6 0L0 6L-6 0Z" fill="none" stroke="#FFFFFF" stroke-width="1"></path></g><g transform="translate(23 4)"><path d="M0 -13L13 0L0 13L-13 0Z" fill="none" stroke="#FFFFFF" stroke-width="1"></path></g><g transform="translate(300 74)"><path d="M0 -6L6 0L0 6L-6 0Z" fill="none" stroke="#FFFFFF" stroke-width="1"></path></g><g transform="translate(407 66)"><path d="M0 -15L15 0L0 15L-15 0Z" fill="none" stroke="#FFFFFF" stroke-width="1"></path></g><g transform="translate(821 97)"><path d="M0 -6L6 0L0 6L-6 0Z" fill="none" stroke="#FFFFFF" stroke-width="1"></path></g><g transform="translate(19 424)"><path d="M0 -5L5 0L0 5L-5 0Z" fill="none" stroke="#FFFFFF" stroke-width="1"></path></g><g transform="translate(75 49)"><path d="M0 -10L10 0L0 10L-10 0Z" fill="none" stroke="#FFFFFF" stroke-width="1"></path></g><g transform="translate(580 443)"><path d="M0 -7L7 0L0 7L-7 0Z" fill="none" stroke="#FFFFFF" stroke-width="1"></path></g><g transform="translate(498 75)"><path d="M0 -13L13 0L0 13L-13 0Z" fill="none" stroke="#FFFFFF" stroke-width="1"></path></g><g transform="translate(373 263)"><path d="M0 -11L11 0L0 11L-11 0Z" fill="none" stroke="#FFFFFF" stroke-width="1"></path></g><g transform="translate(554 342)"><path d="M0 -13L13 0L0 13L-13 0Z" fill="none" stroke="#FFFFFF" stroke-width="1"></path></g></g></svg>