<svg color="white" fill="white" id="&#x421;&#x43B;&#x43E;&#x439;_1" viewBox="0 0 128 128"
    xmlns="http://www.w3.org/2000/svg">
    <path d="m43.52 73.6v-24a1 1 0 0 0 -2 0v24a1 1 0 0 0 2 0z" />
    <path
        d="m127.53.32a1 1 0 0 0 -1 0l-41 20-8.05-3.81h8.28a2.76 2.76 0 0 0 1.29-5.2c0-.14 0-.28 0-.42a5.27 5.27 0 0 0 -4-5.14 3.69 3.69 0 0 0 -3.55-1.75 5.51 5.51 0 0 0 -3.66-1.41 5.53 5.53 0 0 0 -4.48 2.32 4.54 4.54 0 0 0 -2.85-1 4.6 4.6 0 0 0 -4.6 4.6 4.53 4.53 0 0 0 .07.8 3.17 3.17 0 0 0 -.59.4l-20.39-9.61a1 1 0 0 0 -.39-.1 1 1 0 0 0 -.32 0h-.08-.07l-41.58 20.4a1 1 0 0 0 -.56.9v105.53a1 1 0 0 0 1.44.9l41.13-20.08 42 19.9a1 1 0 0 0 1.27.35l41.57-20.29a1 1 0 0 0 .56-.9v-105.54a1 1 0 0 0 -.44-.85zm-62.23 10.68a1 1 0 0 0 .83-1.41 2.59 2.59 0 0 1 4.57-2.39 1 1 0 0 0 1.79-.2 3.55 3.55 0 0 1 3.33-2.39 3.48 3.48 0 0 1 2.61 1.19 1 1 0 0 0 1.07.28 1.69 1.69 0 0 1 .54-.1 1.73 1.73 0 0 1 1.57 1 1 1 0 0 0 .75.58 3.23 3.23 0 0 1 2.64 4.15 1 1 0 0 0 .91 1.29.77.77 0 0 1 .7.76.74.74 0 0 1 -.77.76l-22.29-.07a.76.76 0 0 1 -.12-1.52 1 1 0 0 0 .82-.87 1.16 1.16 0 0 1 1.05-1.06zm60.7 95.08-39.57 19.32v-22.13a1 1 0 0 0 -2 0v22l-40.86-19.37v-7.9a1 1 0 0 0 -2 0v7.95l-39.57 19.28v-103.31l39.57-19.32v28.59a1 1 0 0 0 2 0v-28.61l18.48 8.75a2.76 2.76 0 0 0 1.49 5.08h9.3l11.59 5.49v8.41a1 1 0 1 0 2 0v-8.22l39.57-19.32z" />
    <path
        d="m82.63 37.65a2.69 2.69 0 0 1 -1.72.45c-.55 0-6.4-.5-9.85-.8a3.89 3.89 0 0 0 -6.4-4.1l-3.26 3.26-8.27-.73a3.88 3.88 0 0 0 -6.13-4.59l-3.7 3.7-16.5-1.48a1 1 0 0 0 -.62.15l-4.5 2.82a1 1 0 0 0 -.18.14l-1.08 1.08a1 1 0 0 0 .71 1.71h3.06l30.31 11.49 9.61 5.45c-6.79 7-14.39 16.33-17.49 20.2v.06l-1.17.29-15.94-.83a1 1 0 0 0 -.76.29l-2.28 2.28a1 1 0 0 0 .14 1.51l11.68 7.21c-2.17 3.16-1.84 3.5-1.44 3.9a.79.79 0 0 0 .61.31c.48 0 1.37-.39 3.31-1.72l7.23 11.69a1 1 0 0 0 .74.47h.12a1 1 0 0 0 .71-.29l2.28-2.28a1 1 0 0 0 .29-.76l-.89-15.93.28-1.12.1-.08c3.84-3.09 13.1-10.67 20.17-17.52l5.45 9.61 11.49 30.31v3.06a1 1 0 0 0 1.71.71l1.08-1.08a1 1 0 0 0 .14-.18l2.82-4.5a1 1 0 0 0 .15-.62s-.59-6.48-1.48-16.46l3.7-3.7a3.88 3.88 0 0 0 -4.58-6.17c-.29-3.31-.41-4.58-.73-8.27l3.26-3.26a3.89 3.89 0 0 0 -4.1-6.4c-.31-3.55-.8-9.31-.8-9.85a2.75 2.75 0 0 1 .43-1.69v-.05c5-5.11 20.32-21.34 17-24.68s-19.56 12-24.67 17zm-11.63 11.59-12.51-4.55-10.49-3.58a3.8 3.8 0 0 0 .3-.24l3.28-3.28 1.13.1 7.13.63a3.89 3.89 0 0 0 6.16 4.6l3.73-3.73c6.74.59 9.43.8 10.53.88zm-5-14.63a1.9 1.9 0 0 1 2.68 2.68l-4.22 4.22a1.9 1.9 0 0 1 -2.68-2.68zm-17.7-2.06a1.9 1.9 0 0 1 2.68 2.68l-.54.54-3.66 3.66a1.9 1.9 0 0 1 -2.68-2.68zm-24 4.71h-.3l3-1.88 14.91 1.34a3.9 3.9 0 0 0 0 2.63l-11-1.48a1 1 0 0 0 -.7.17l-1.27.87-4.17-1.58a1 1 0 0 0 -.4-.07zm31.12 11.74-.14-.06-23.44-8.94 11.16 1.53 14.81 5 11.67 4.27-3.48 3.44-.36.36-.08.08zm-26.69 30 1.07-1.07 15 .78c-2.37 3-4.09 5.22-5.32 6.9zm21.33 19.19-1.06 1.08-6.6-10.68c1.68-1.22 3.91-2.94 6.88-5.31zm28.94-25.61-5.72-10.14.08-.08 3.84-3.84 4.22 11.64 5.05 14.84 1.53 11.15-8.91-23.43zm8.91-24.8c.07 1.1.29 3.79.88 10.53l-3.71 3.69a3.88 3.88 0 0 0 4.6 6.16c.27 3.06.39 4.37.73 8.26l-3.28 3.28a3.81 3.81 0 0 0 -.24.3l-3.59-10.5-4.54-12.5zm2.83 56.22v-.41a1 1 0 0 0 -.06-.35l-1.59-4.14.91-1.27a1 1 0 0 0 .17-.7l-1.48-11a3.73 3.73 0 0 0 2.63 0c.72 8 1.21 13.53 1.34 14.91zm3.37-27.65a1.89 1.89 0 0 1 1.34 3.23l-4.22 4.22a1.9 1.9 0 0 1 -2.68-2.68l4.22-4.22a1.89 1.89 0 0 1 1.34-.51zm-.72-17.15a1.9 1.9 0 0 1 0 2.68l-4.22 4.22a1.9 1.9 0 0 1 -2.68-2.68l4.22-4.22a1.9 1.9 0 0 1 2.68 0zm12.49-37.12c.08 2-6.16 11-18.26 23.15l-15.68 15.71c-9.12 9.12-24.38 21.34-31.19 26.32 5-6.84 17.25-22.14 26.25-31.16l15.73-15.72c12-12 21.06-18.26 23.11-18.26z" />
    <path
        d="m34 64.94a2.88 2.88 0 0 0 -1.73-2.63 3.31 3.31 0 0 0 -3.18-2.31 3.52 3.52 0 0 0 -.91.13 5.13 5.13 0 0 0 -4.88-3.49 5.9 5.9 0 0 0 -5.34-3.45 5.83 5.83 0 0 0 -5.22 3.25 9.36 9.36 0 0 0 -1.23-.13 5.62 5.62 0 0 0 -5.64 5.69 4.73 4.73 0 0 0 0 .49 2.88 2.88 0 0 0 1.31 5.45l23.86-.07a2.89 2.89 0 0 0 2.96-2.93zm-26.75 1a.88.88 0 0 1 -.07-1.77 1 1 0 0 0 .82-1.29 3.56 3.56 0 0 1 -.13-.88 3.62 3.62 0 0 1 3.6-3.62 3.58 3.58 0 0 1 1.4.28 1 1 0 0 0 1.37-.66 3.85 3.85 0 0 1 3.69-2.77 3.89 3.89 0 0 1 3.71 2.77 1 1 0 0 0 1.12.71 5 5 0 0 1 .53-.06 3.15 3.15 0 0 1 3.16 3.07 1 1 0 0 0 1.71.68 1.31 1.31 0 0 1 2.23.78 1 1 0 0 0 .83.87.89.89 0 0 1 -.14 1.76z" />
    <path
        d="m15.18 91.39a7.35 7.35 0 0 0 -7.34 7.34c0 3.71 5.85 12.36 6.52 13.33a1 1 0 0 0 1.65 0c.67-1 6.52-9.63 6.52-13.33a7.35 7.35 0 0 0 -7.35-7.34zm0 18.31c-2-3.09-5.34-8.7-5.34-11a5.34 5.34 0 0 1 10.69 0c-.01 2.3-3.34 7.91-5.35 11z" />
    <path
        d="m15.18 95.47a3.27 3.27 0 1 0 3.27 3.27 3.27 3.27 0 0 0 -3.27-3.27zm0 4.53a1.27 1.27 0 1 1 1.27-1.27 1.27 1.27 0 0 1 -1.27 1.27z" />
    <path
        d="m100.25 50.55c0 5.88 10 20.49 10.38 21.11a1 1 0 0 0 1.65 0c.42-.62 10.38-15.23 10.38-21.11a11.21 11.21 0 1 0 -22.41 0zm11.21-9.21a9.22 9.22 0 0 1 9.21 9.21c0 4-6 13.94-9.21 18.75-3.17-4.81-9.21-14.76-9.21-18.75a9.22 9.22 0 0 1 9.21-9.21z" />
    <path
        d="m111.46 56.72a6.17 6.17 0 1 0 -6.17-6.17 6.17 6.17 0 0 0 6.17 6.17zm0-10.34a4.17 4.17 0 1 1 -4.17 4.17 4.17 4.17 0 0 1 4.17-4.17z" />
    <path
        d="m50.37 117c-.67-.14-1.52-.36-1.93-.5-.14-.47-.37-1.52-.52-2.39a1 1 0 0 0 -2 0c-.15.87-.38 1.92-.52 2.39a19.47 19.47 0 0 1 -1.93.5 1 1 0 0 0 0 2 19.56 19.56 0 0 1 1.93.5c.14.47.37 1.52.52 2.39a1 1 0 0 0 2 0c.15-.87.38-1.92.52-2.39a19.51 19.51 0 0 1 1.93-.5 1 1 0 0 0 0-2z" />
    <path
        d="m23.39 19.35a30.23 30.23 0 0 1 3.15.7c.2.69.51 2.58.73 4.16a1 1 0 0 0 2 0c.21-1.58.53-3.46.73-4.16a30.71 30.71 0 0 1 3.15-.7 1 1 0 0 0 0-2 30.21 30.21 0 0 1 -3.15-.7c-.2-.69-.51-2.58-.73-4.16a1 1 0 0 0 -2 0c-.21 1.58-.53 3.46-.73 4.16a30.18 30.18 0 0 1 -3.15.7 1 1 0 0 0 0 2zm4.61-1.22a1.07 1.07 0 0 0 .24-.34 1.07 1.07 0 0 0 .24.34 1.17 1.17 0 0 0 .33.24 1.16 1.16 0 0 0 -.33.24 1.06 1.06 0 0 0 -.24.34 1.07 1.07 0 0 0 -.24-.34 1.16 1.16 0 0 0 -.33-.24 1.16 1.16 0 0 0 .33-.24z" />
    <path
        d="m121.87 81a22.11 22.11 0 0 1 -2.52-.67 28.66 28.66 0 0 1 -.69-3.08 1 1 0 0 0 -2 0 28.54 28.54 0 0 1 -.69 3.08 22.12 22.12 0 0 1 -2.52.67 1 1 0 0 0 0 2 22.09 22.09 0 0 1 2.52.67 28.66 28.66 0 0 1 .69 3.08 1 1 0 0 0 2 0 28.54 28.54 0 0 1 .69-3.08 22.08 22.08 0 0 1 2.52-.67 1 1 0 0 0 0-2zm-4 1.19a1.12 1.12 0 0 0 -.21.28 1.11 1.11 0 0 0 -.21-.28 1.2 1.2 0 0 0 -.28-.21 1.18 1.18 0 0 0 .28-.21 1.12 1.12 0 0 0 .21-.28 1.14 1.14 0 0 0 .21.28 1.21 1.21 0 0 0 .28.21 1.21 1.21 0 0 0 -.26.16z" />
</svg>