<svg id="visual" viewBox="0 0 900 450" width="900" height="450" xmlns="http://www.w3.org/2000/svg" xmlns:xlink="http://www.w3.org/1999/xlink" version="1.1"><g><g transform="translate(144 323)"><path d="M17.6 -10.2C21.2 -3.9 21.4 4.3 17.9 10.5C14.4 16.8 7.2 21 -0.2 21.2C-7.7 21.3 -15.3 17.3 -19.2 10.8C-23.1 4.4 -23.2 -4.5 -19.4 -10.9C-15.5 -17.3 -7.8 -21.1 -0.4 -20.9C7 -20.7 14 -16.4 17.6 -10.2Z" fill="none" stroke="#ffffff" stroke-width="20"></path></g><g transform="translate(776 430)"><path d="M4.7 -2.8C5.5 -1.2 5.4 1 4.5 2.6C3.5 4.2 1.8 5.2 -0.1 5.3C-1.9 5.3 -3.8 4.3 -4.7 2.7C-5.6 1.1 -5.5 -1 -4.6 -2.7C-3.6 -4.3 -1.8 -5.5 0 -5.5C1.9 -5.5 3.8 -4.4 4.7 -2.8Z" fill="none" stroke="#ffffff" stroke-width="20"></path></g><g transform="translate(728 372)"><path d="M5.6 -3.2C6.7 -1.3 6.7 1.3 5.6 3.2C4.4 5.1 2.2 6.4 0 6.4C-2.2 6.4 -4.4 5.1 -5.6 3.2C-6.7 1.2 -6.8 -1.4 -5.7 -3.2C-4.6 -5 -2.3 -6.1 0 -6.1C2.3 -6.1 4.5 -5 5.6 -3.2Z" stroke="#ffffff" fill="none" stroke-width="20"></path></g><g transform="translate(670 308)"><path d="M14.3 -8.4C17.3 -3.1 17.6 3.6 14.7 8.5C11.9 13.5 5.9 16.6 0.1 16.5C-5.7 16.5 -11.4 13.2 -14.4 8.2C-17.3 3.2 -17.4 -3.5 -14.6 -8.6C-11.7 -13.8 -5.8 -17.5 -0.1 -17.4C5.7 -17.4 11.4 -13.6 14.3 -8.4Z" stroke="#ffffff" fill="none" stroke-width="20"></path></g></g></svg>